<mxfile host="Electron" agent="Mozilla/5.0 (X11; Linux x86_64) AppleWebKit/537.36 (KHTML, like Gecko) draw.io/28.1.2 Chrome/138.0.7204.243 Electron/37.4.0 Safari/537.36" version="28.1.2">
  <diagram id="5k7aKqJ7HCzyOe2rmvMZ" name="PÃ¡gina-1">
    <mxGraphModel dx="1426" dy="843" grid="1" gridSize="10" guides="1" tooltips="1" connect="1" arrows="1" fold="1" page="1" pageScale="1" pageWidth="827" pageHeight="1169" math="0" shadow="0">
      <root>
        <mxCell id="0" />
        <mxCell id="1" parent="0" />
        <mxCell id="zyhslbXE17DpZRoZghis-1" value="&lt;p style=&quot;margin:0px;margin-top:4px;text-align:center;&quot;&gt;&lt;b&gt;Gateway&lt;/b&gt;&lt;/p&gt;&lt;hr size=&quot;1&quot; style=&quot;border-style:solid;&quot;&gt;&lt;p style=&quot;margin:0px;margin-left:4px;&quot;&gt;&lt;br&gt;&lt;/p&gt;&lt;hr size=&quot;1&quot; style=&quot;border-style:solid;&quot;&gt;&lt;p style=&quot;margin:0px;margin-left:4px;&quot;&gt;+ cobrar(valor: BigDecimal): boolean&lt;/p&gt;" style="verticalAlign=top;align=left;overflow=fill;html=1;whiteSpace=wrap;" vertex="1" parent="1">
          <mxGeometry x="0.5" y="50" width="210" height="90" as="geometry" />
        </mxCell>
        <mxCell id="zyhslbXE17DpZRoZghis-2" value="&lt;p style=&quot;margin:0px;margin-top:4px;text-align:center;&quot;&gt;&lt;b&gt;PagamentoCredito&lt;/b&gt;&lt;/p&gt;&lt;hr size=&quot;1&quot; style=&quot;border-style:solid;&quot;&gt;&lt;p style=&quot;margin:0px;margin-left:4px;&quot;&gt;&lt;br&gt;&lt;/p&gt;&lt;hr size=&quot;1&quot; style=&quot;border-style:solid;&quot;&gt;&lt;p style=&quot;margin:0px;margin-left:4px;&quot;&gt;- calcularTaxa(): BigDecimal&lt;/p&gt;&lt;p style=&quot;margin:0px;margin-left:4px;&quot;&gt;- calcularDesconto(): BigDecimal&lt;/p&gt;" style="verticalAlign=top;align=left;overflow=fill;html=1;whiteSpace=wrap;" vertex="1" parent="1">
          <mxGeometry y="300" width="210" height="100" as="geometry" />
        </mxCell>
        <mxCell id="zyhslbXE17DpZRoZghis-3" value="&lt;p style=&quot;margin:0px;margin-top:4px;text-align:center;&quot;&gt;&lt;b&gt;PagamentoDebito&lt;/b&gt;&lt;/p&gt;&lt;hr size=&quot;1&quot; style=&quot;border-style:solid;&quot;&gt;&lt;p style=&quot;margin:0px;margin-left:4px;&quot;&gt;&lt;br&gt;&lt;/p&gt;&lt;hr size=&quot;1&quot; style=&quot;border-style:solid;&quot;&gt;&lt;p style=&quot;margin:0px;margin-left:4px;&quot;&gt;- calcularTaxa(): BigDecimal&lt;/p&gt;&lt;p style=&quot;margin:0px;margin-left:4px;&quot;&gt;- calcularDesconto(): BigDecimal&lt;/p&gt;" style="verticalAlign=top;align=left;overflow=fill;html=1;whiteSpace=wrap;" vertex="1" parent="1">
          <mxGeometry x="308.5" y="300" width="210" height="100" as="geometry" />
        </mxCell>
        <mxCell id="zyhslbXE17DpZRoZghis-4" value="&lt;p style=&quot;margin:0px;margin-top:4px;text-align:center;&quot;&gt;&lt;b&gt;PagamentoDinheiro&lt;/b&gt;&lt;/p&gt;&lt;hr size=&quot;1&quot; style=&quot;border-style:solid;&quot;&gt;&lt;p style=&quot;margin:0px;margin-left:4px;&quot;&gt;&lt;br&gt;&lt;/p&gt;&lt;hr size=&quot;1&quot; style=&quot;border-style:solid;&quot;&gt;&lt;p style=&quot;margin:0px;margin-left:4px;&quot;&gt;&lt;span style=&quot;background-color: transparent; color: light-dark(rgb(0, 0, 0), rgb(255, 255, 255));&quot;&gt;- calcularDesconto(): BigDecimal&lt;/span&gt;&lt;/p&gt;" style="verticalAlign=top;align=left;overflow=fill;html=1;whiteSpace=wrap;" vertex="1" parent="1">
          <mxGeometry x="616.5" y="300" width="210" height="100" as="geometry" />
        </mxCell>
        <mxCell id="zyhslbXE17DpZRoZghis-5" value="&lt;p style=&quot;margin:0px;margin-top:4px;text-align:center;&quot;&gt;&lt;b&gt;&lt;i&gt;&amp;lt;&amp;lt;abstract&amp;gt;&amp;gt;&lt;/i&gt;&lt;/b&gt;&lt;/p&gt;&lt;p style=&quot;margin:0px;margin-top:4px;text-align:center;&quot;&gt;&lt;b&gt;&lt;i&gt;Pagamento&lt;/i&gt;&lt;/b&gt;&lt;/p&gt;&lt;hr size=&quot;1&quot; style=&quot;border-style:solid;&quot;&gt;&lt;p style=&quot;margin:0px;margin-left:4px;&quot;&gt;- valor: BigDecimal&lt;/p&gt;&lt;p style=&quot;margin:0px;margin-left:4px;&quot;&gt;- gateway: Gateway&lt;/p&gt;&lt;hr size=&quot;1&quot; style=&quot;border-style:solid;&quot;&gt;&lt;p style=&quot;margin:0px;margin-left:4px;&quot;&gt;- calcularTaxa(): BigDecimal&lt;/p&gt;&lt;p style=&quot;margin:0px;margin-left:4px;&quot;&gt;- &lt;i&gt;calcularDesconto&lt;/i&gt;(): BigDecimal&lt;/p&gt;&lt;p style=&quot;margin:0px;margin-left:4px;&quot;&gt;+ cobrar(): boolean&lt;/p&gt;" style="verticalAlign=top;align=left;overflow=fill;html=1;whiteSpace=wrap;" vertex="1" parent="1">
          <mxGeometry x="309" y="50" width="210" height="140" as="geometry" />
        </mxCell>
        <mxCell id="zyhslbXE17DpZRoZghis-6" value="Extends" style="endArrow=block;endSize=16;endFill=0;html=1;rounded=0;exitX=0.5;exitY=0;exitDx=0;exitDy=0;entryX=0.5;entryY=1;entryDx=0;entryDy=0;" edge="1" parent="1" source="zyhslbXE17DpZRoZghis-2" target="zyhslbXE17DpZRoZghis-5">
          <mxGeometry width="160" relative="1" as="geometry">
            <mxPoint x="360.5" y="530" as="sourcePoint" />
            <mxPoint x="520.5" y="530" as="targetPoint" />
          </mxGeometry>
        </mxCell>
        <mxCell id="zyhslbXE17DpZRoZghis-7" value="Extends" style="endArrow=block;endSize=16;endFill=0;html=1;rounded=0;exitX=0.5;exitY=0;exitDx=0;exitDy=0;entryX=0.5;entryY=1;entryDx=0;entryDy=0;" edge="1" parent="1" source="zyhslbXE17DpZRoZghis-3" target="zyhslbXE17DpZRoZghis-5">
          <mxGeometry width="160" relative="1" as="geometry">
            <mxPoint x="250.5" y="550" as="sourcePoint" />
            <mxPoint x="559.5" y="470" as="targetPoint" />
          </mxGeometry>
        </mxCell>
        <mxCell id="zyhslbXE17DpZRoZghis-8" value="Extends" style="endArrow=block;endSize=16;endFill=0;html=1;rounded=0;exitX=0.5;exitY=0;exitDx=0;exitDy=0;entryX=0.5;entryY=1;entryDx=0;entryDy=0;" edge="1" parent="1" source="zyhslbXE17DpZRoZghis-4" target="zyhslbXE17DpZRoZghis-5">
          <mxGeometry width="160" relative="1" as="geometry">
            <mxPoint x="510.5" y="630" as="sourcePoint" />
            <mxPoint x="510.5" y="550" as="targetPoint" />
          </mxGeometry>
        </mxCell>
        <mxCell id="zyhslbXE17DpZRoZghis-10" value="" style="line;strokeWidth=1;fillColor=none;align=left;verticalAlign=middle;spacingTop=-1;spacingLeft=3;spacingRight=3;rotatable=0;labelPosition=right;points=[];portConstraint=eastwest;strokeColor=inherit;" vertex="1" parent="1">
          <mxGeometry x="9" y="440" width="810" height="8" as="geometry" />
        </mxCell>
        <mxCell id="zyhslbXE17DpZRoZghis-11" value="&lt;p style=&quot;margin:0px;margin-top:4px;text-align:center;&quot;&gt;&lt;b&gt;&lt;i&gt;&amp;lt;&amp;lt;abstract&amp;gt;&amp;gt;&lt;/i&gt;&lt;/b&gt;&lt;/p&gt;&lt;p style=&quot;margin:0px;margin-top:4px;text-align:center;&quot;&gt;&lt;b&gt;&lt;i&gt;ClasseAbstrata&lt;/i&gt;&lt;/b&gt;&lt;/p&gt;&lt;hr size=&quot;1&quot; style=&quot;border-style:solid;&quot;&gt;&lt;p style=&quot;margin:0px;margin-left:4px;&quot;&gt;&lt;br&gt;&lt;/p&gt;&lt;hr size=&quot;1&quot; style=&quot;border-style:solid;&quot;&gt;&lt;p style=&quot;margin:0px;margin-left:4px;&quot;&gt;+ templateMethod(...): ...&lt;/p&gt;&lt;p style=&quot;margin:0px;margin-left:4px;&quot;&gt;+ &lt;i&gt;operacaoPrimitiva1&lt;/i&gt;(...): ...&lt;/p&gt;&lt;p style=&quot;margin:0px;margin-left:4px;&quot;&gt;+ &lt;i&gt;operacaoPrimitiva2&lt;/i&gt;(...): ...&lt;/p&gt;" style="verticalAlign=top;align=left;overflow=fill;html=1;whiteSpace=wrap;" vertex="1" parent="1">
          <mxGeometry x="334" y="530" width="160" height="130" as="geometry" />
        </mxCell>
        <mxCell id="zyhslbXE17DpZRoZghis-12" value="&lt;p style=&quot;margin:0px;margin-top:4px;text-align:center;&quot;&gt;&lt;b&gt;ClasseConcretaA&lt;/b&gt;&lt;/p&gt;&lt;hr size=&quot;1&quot; style=&quot;border-style:solid;&quot;&gt;&lt;p style=&quot;margin:0px;margin-left:4px;&quot;&gt;&lt;br&gt;&lt;/p&gt;&lt;hr size=&quot;1&quot; style=&quot;border-style:solid;&quot;&gt;&lt;p style=&quot;margin:0px;margin-left:4px;&quot;&gt;+ operacaoPrimitiva1(...): ...&lt;/p&gt;&lt;p style=&quot;margin:0px;margin-left:4px;&quot;&gt;+ operacaoPrimitiva2(...): ...&lt;/p&gt;" style="verticalAlign=top;align=left;overflow=fill;html=1;whiteSpace=wrap;" vertex="1" parent="1">
          <mxGeometry x="80" y="790" width="160" height="90" as="geometry" />
        </mxCell>
        <mxCell id="zyhslbXE17DpZRoZghis-13" value="&lt;p style=&quot;margin:0px;margin-top:4px;text-align:center;&quot;&gt;&lt;b&gt;ClasseConcretaB&lt;/b&gt;&lt;/p&gt;&lt;hr size=&quot;1&quot; style=&quot;border-style:solid;&quot;&gt;&lt;p style=&quot;margin:0px;margin-left:4px;&quot;&gt;&lt;br&gt;&lt;/p&gt;&lt;hr size=&quot;1&quot; style=&quot;border-style:solid;&quot;&gt;&lt;p style=&quot;margin:0px;margin-left:4px;&quot;&gt;+ operacaoPrimitiva1(...): ...&lt;/p&gt;&lt;p style=&quot;margin:0px;margin-left:4px;&quot;&gt;+ operacaoPrimitiva2(...): ...&lt;/p&gt;" style="verticalAlign=top;align=left;overflow=fill;html=1;whiteSpace=wrap;" vertex="1" parent="1">
          <mxGeometry x="510" y="790" width="160" height="90" as="geometry" />
        </mxCell>
        <mxCell id="zyhslbXE17DpZRoZghis-14" value="Extends" style="endArrow=block;endSize=16;endFill=0;html=1;rounded=0;exitX=0.5;exitY=0;exitDx=0;exitDy=0;entryX=0.5;entryY=1;entryDx=0;entryDy=0;" edge="1" parent="1" source="zyhslbXE17DpZRoZghis-12" target="zyhslbXE17DpZRoZghis-11">
          <mxGeometry width="160" relative="1" as="geometry">
            <mxPoint x="360" y="600" as="sourcePoint" />
            <mxPoint x="330" y="680" as="targetPoint" />
          </mxGeometry>
        </mxCell>
        <mxCell id="zyhslbXE17DpZRoZghis-15" value="Extends" style="endArrow=block;endSize=16;endFill=0;html=1;rounded=0;exitX=0.5;exitY=0;exitDx=0;exitDy=0;entryX=0.5;entryY=1;entryDx=0;entryDy=0;" edge="1" parent="1" source="zyhslbXE17DpZRoZghis-13" target="zyhslbXE17DpZRoZghis-11">
          <mxGeometry width="160" relative="1" as="geometry">
            <mxPoint x="250" y="870" as="sourcePoint" />
            <mxPoint x="504" y="740" as="targetPoint" />
          </mxGeometry>
        </mxCell>
        <mxCell id="zyhslbXE17DpZRoZghis-17" value="" style="ellipse;html=1;direction=south;rotation=0;spacing=2;" vertex="1" parent="1">
          <mxGeometry x="475" y="605" width="15" height="15" as="geometry" />
        </mxCell>
        <mxCell id="zyhslbXE17DpZRoZghis-18" value="" style="endArrow=open;html=1;rounded=0;align=center;verticalAlign=top;endFill=0;labelBackgroundColor=none;endSize=6;entryX=0;entryY=0.5;entryDx=0;entryDy=0;" edge="1" source="zyhslbXE17DpZRoZghis-17" parent="1" target="zyhslbXE17DpZRoZghis-28">
          <mxGeometry relative="1" as="geometry">
            <mxPoint x="640" y="585" as="targetPoint" />
          </mxGeometry>
        </mxCell>
        <mxCell id="zyhslbXE17DpZRoZghis-24" value="" style="shape=note2;size=25;childLayout=stackLayout;horizontalStack=0;resizeParent=1;resizeParentMax=0;resizeLast=0;collapsible=0;marginBottom=0;html=1;container=1;" vertex="1" parent="1">
          <mxGeometry x="640" y="530" width="160" height="125" as="geometry" />
        </mxCell>
        <mxCell id="zyhslbXE17DpZRoZghis-25" value="..." style="text;html=1;strokeColor=none;fillColor=none;align=left;verticalAlign=middle;spacingLeft=4;spacingRight=4;overflow=hidden;rotatable=0;points=[[0,0.5],[1,0.5]];portConstraint=eastwest;whiteSpace=wrap;" vertex="1" parent="zyhslbXE17DpZRoZghis-24">
          <mxGeometry width="160" height="25" as="geometry" />
        </mxCell>
        <mxCell id="zyhslbXE17DpZRoZghis-26" value="operacaoPrimitiva1();" style="text;html=1;strokeColor=none;fillColor=none;align=left;verticalAlign=middle;spacingLeft=4;spacingRight=4;overflow=hidden;rotatable=0;points=[[0,0.5],[1,0.5]];portConstraint=eastwest;whiteSpace=wrap;" vertex="1" parent="zyhslbXE17DpZRoZghis-24">
          <mxGeometry y="25" width="160" height="25" as="geometry" />
        </mxCell>
        <mxCell id="zyhslbXE17DpZRoZghis-28" value="..." style="text;html=1;strokeColor=none;fillColor=none;align=left;verticalAlign=middle;spacingLeft=4;spacingRight=4;overflow=hidden;rotatable=0;points=[[0,0.5],[1,0.5]];portConstraint=eastwest;whiteSpace=wrap;" vertex="1" parent="zyhslbXE17DpZRoZghis-24">
          <mxGeometry y="50" width="160" height="25" as="geometry" />
        </mxCell>
        <mxCell id="zyhslbXE17DpZRoZghis-29" value="operacaoPrimitiva2();" style="text;html=1;strokeColor=none;fillColor=none;align=left;verticalAlign=middle;spacingLeft=4;spacingRight=4;overflow=hidden;rotatable=0;points=[[0,0.5],[1,0.5]];portConstraint=eastwest;whiteSpace=wrap;" vertex="1" parent="zyhslbXE17DpZRoZghis-24">
          <mxGeometry y="75" width="160" height="25" as="geometry" />
        </mxCell>
        <mxCell id="zyhslbXE17DpZRoZghis-30" value="..." style="text;html=1;strokeColor=none;fillColor=none;align=left;verticalAlign=middle;spacingLeft=4;spacingRight=4;overflow=hidden;rotatable=0;points=[[0,0.5],[1,0.5]];portConstraint=eastwest;whiteSpace=wrap;" vertex="1" parent="zyhslbXE17DpZRoZghis-24">
          <mxGeometry y="100" width="160" height="25" as="geometry" />
        </mxCell>
        <mxCell id="zyhslbXE17DpZRoZghis-31" value="" style="ellipse;html=1;" vertex="1" parent="1">
          <mxGeometry x="420" y="170" width="15" height="15" as="geometry" />
        </mxCell>
        <mxCell id="zyhslbXE17DpZRoZghis-32" value="" style="endArrow=open;html=1;rounded=0;align=center;verticalAlign=top;endFill=0;labelBackgroundColor=none;endSize=6;entryX=0;entryY=0.5;entryDx=0;entryDy=0;" edge="1" source="zyhslbXE17DpZRoZghis-31" parent="1" target="zyhslbXE17DpZRoZghis-41">
          <mxGeometry relative="1" as="geometry">
            <mxPoint x="540" y="150" as="targetPoint" />
          </mxGeometry>
        </mxCell>
        <mxCell id="zyhslbXE17DpZRoZghis-38" value="" style="shape=note2;size=25;childLayout=stackLayout;horizontalStack=0;resizeParent=1;resizeParentMax=0;resizeLast=0;collapsible=0;marginBottom=0;html=1;container=1;" vertex="1" parent="1">
          <mxGeometry x="600" y="110" width="200" height="100" as="geometry" />
        </mxCell>
        <mxCell id="zyhslbXE17DpZRoZghis-39" value="valorFinal = valor;" style="text;html=1;strokeColor=none;fillColor=none;align=left;verticalAlign=middle;spacingLeft=4;spacingRight=4;overflow=hidden;rotatable=0;points=[[0,0.5],[1,0.5]];portConstraint=eastwest;whiteSpace=wrap;" vertex="1" parent="zyhslbXE17DpZRoZghis-38">
          <mxGeometry width="200" height="25" as="geometry" />
        </mxCell>
        <mxCell id="zyhslbXE17DpZRoZghis-40" value="valorFinal += calcularTaxa();" style="text;html=1;strokeColor=none;fillColor=none;align=left;verticalAlign=middle;spacingLeft=4;spacingRight=4;overflow=hidden;rotatable=0;points=[[0,0.5],[1,0.5]];portConstraint=eastwest;whiteSpace=wrap;" vertex="1" parent="zyhslbXE17DpZRoZghis-38">
          <mxGeometry y="25" width="200" height="25" as="geometry" />
        </mxCell>
        <mxCell id="zyhslbXE17DpZRoZghis-41" value="valorFinal -= calculcarDesconto();" style="text;html=1;strokeColor=none;fillColor=none;align=left;verticalAlign=middle;spacingLeft=4;spacingRight=4;overflow=hidden;rotatable=0;points=[[0,0.5],[1,0.5]];portConstraint=eastwest;whiteSpace=wrap;" vertex="1" parent="zyhslbXE17DpZRoZghis-38">
          <mxGeometry y="50" width="200" height="25" as="geometry" />
        </mxCell>
        <mxCell id="zyhslbXE17DpZRoZghis-42" value="gateway.cobrar(valorFinal);" style="text;html=1;strokeColor=none;fillColor=none;align=left;verticalAlign=middle;spacingLeft=4;spacingRight=4;overflow=hidden;rotatable=0;points=[[0,0.5],[1,0.5]];portConstraint=eastwest;whiteSpace=wrap;" vertex="1" parent="zyhslbXE17DpZRoZghis-38">
          <mxGeometry y="75" width="200" height="25" as="geometry" />
        </mxCell>
        <mxCell id="zyhslbXE17DpZRoZghis-44" value="Modelo GenÃ©rico" style="text;align=center;fontStyle=1;verticalAlign=middle;spacingLeft=3;spacingRight=3;strokeColor=none;rotatable=0;points=[[0,0.5],[1,0.5]];portConstraint=eastwest;html=1;" vertex="1" parent="1">
          <mxGeometry x="374" y="490" width="80" height="26" as="geometry" />
        </mxCell>
        <mxCell id="zyhslbXE17DpZRoZghis-51" value="Estudo de caso" style="text;align=center;fontStyle=1;verticalAlign=middle;spacingLeft=3;spacingRight=3;strokeColor=none;rotatable=0;points=[[0,0.5],[1,0.5]];portConstraint=eastwest;html=1;" vertex="1" parent="1">
          <mxGeometry x="374" y="10" width="80" height="26" as="geometry" />
        </mxCell>
      </root>
    </mxGraphModel>
  </diagram>
</mxfile>
